<svg xmlns="http://www.w3.org/2000/svg" width="350.969" height="370.889" viewBox="0 0 350.969 370.889"><g transform="translate(-675.75 -7160.749)"><g transform="translate(640.914 6976.701)"><g transform="translate(35.085 184.298)"><circle cx="7.914" cy="7.914" r="7.914" fill="#005fa9" stroke="#005fa9" stroke-linecap="round" stroke-linejoin="round" stroke-width="0.5"/><path d="M43,209.07a7.914,7.914,0,1,1,7.917-7.911A7.908,7.908,0,0,1,43,209.07Z" transform="translate(-35.083 -142.591)" fill="#005fa9" stroke="#005fa9" stroke-linecap="round" stroke-linejoin="round" stroke-width="0.5"/><circle cx="7.914" cy="7.914" r="7.914" transform="translate(0 101.303)" fill="#005fa9" stroke="#005fa9" stroke-linecap="round" stroke-linejoin="round" stroke-width="0.5"/><circle cx="7.914" cy="7.914" r="7.914" transform="translate(0 151.954)" fill="#005fa9" stroke="#005fa9" stroke-linecap="round" stroke-linejoin="round" stroke-width="0.5"/><circle cx="7.914" cy="7.914" r="7.914" transform="translate(0 202.606)" fill="#005fa9" stroke="#005fa9" stroke-linecap="round" stroke-linejoin="round" stroke-width="0.5"/><circle cx="7.914" cy="7.914" r="7.914" transform="translate(0 253.258)" fill="#005fa9" stroke="#005fa9" stroke-linecap="round" stroke-linejoin="round" stroke-width="0.5"/><path d="M43,253.791a7.914,7.914,0,1,1,7.917-7.917A7.913,7.913,0,0,1,43,253.791Z" transform="translate(-35.083 65.947)" fill="#005fa9" stroke="#005fa9" stroke-linecap="round" stroke-linejoin="round" stroke-width="0.5"/><circle cx="7.914" cy="7.914" r="7.914" transform="translate(0 354.561)" fill="#005fa9" stroke="#005fa9" stroke-linecap="round" stroke-linejoin="round" stroke-width="0.5"/></g><g transform="translate(82.891 184.298)"><circle cx="7.914" cy="7.914" r="7.914" transform="translate(0.001)" fill="#005fa9" stroke="#005fa9" stroke-linecap="round" stroke-linejoin="round" stroke-width="0.5"/><path d="M51.444,209.07a7.914,7.914,0,1,1,7.911-7.911A7.913,7.913,0,0,1,51.444,209.07Z" transform="translate(-43.527 -142.591)" fill="#005fa9" stroke="#005fa9" stroke-linecap="round" stroke-linejoin="round" stroke-width="0.5"/><circle cx="7.914" cy="7.914" r="7.914" transform="translate(0.001 101.303)" fill="#005fa9" stroke="#005fa9" stroke-linecap="round" stroke-linejoin="round" stroke-width="0.5"/><circle cx="7.914" cy="7.914" r="7.914" transform="translate(0.001 151.954)" fill="#005fa9" stroke="#005fa9" stroke-linecap="round" stroke-linejoin="round" stroke-width="0.5"/><circle cx="7.914" cy="7.914" r="7.914" transform="translate(0.001 202.606)" fill="#005fa9" stroke="#005fa9" stroke-linecap="round" stroke-linejoin="round" stroke-width="0.5"/><circle cx="7.914" cy="7.914" r="7.914" transform="translate(0.001 253.258)" fill="#005fa9" stroke="#005fa9" stroke-linecap="round" stroke-linejoin="round" stroke-width="0.5"/><path d="M51.444,253.791a7.914,7.914,0,1,1,7.911-7.917A7.918,7.918,0,0,1,51.444,253.791Z" transform="translate(-43.527 65.947)" fill="#005fa9" stroke="#005fa9" stroke-linecap="round" stroke-linejoin="round" stroke-width="0.5"/></g><g transform="translate(130.697 184.298)"><circle cx="7.914" cy="7.914" r="7.914" fill="#005fa9" stroke="#005fa9" stroke-linecap="round" stroke-linejoin="round" stroke-width="0.5"/><path d="M59.88,209.07a7.914,7.914,0,1,1,7.917-7.911A7.908,7.908,0,0,1,59.88,209.07Z" transform="translate(-51.967 -142.591)" fill="#005fa9" stroke="#005fa9" stroke-linecap="round" stroke-linejoin="round" stroke-width="0.5"/><circle cx="7.914" cy="7.914" r="7.914" transform="translate(0 101.303)" fill="#005fa9" stroke="#005fa9" stroke-linecap="round" stroke-linejoin="round" stroke-width="0.5"/><circle cx="7.914" cy="7.914" r="7.914" transform="translate(0 151.954)" fill="#005fa9" stroke="#005fa9" stroke-linecap="round" stroke-linejoin="round" stroke-width="0.5"/><circle cx="7.914" cy="7.914" r="7.914" transform="translate(0 202.606)" fill="#005fa9" stroke="#005fa9" stroke-linecap="round" stroke-linejoin="round" stroke-width="0.5"/><circle cx="7.914" cy="7.914" r="7.914" transform="translate(0 253.258)" fill="#005fa9" stroke="#005fa9" stroke-linecap="round" stroke-linejoin="round" stroke-width="0.5"/></g><g transform="translate(178.501 184.298)"><circle cx="7.914" cy="7.914" r="7.914" transform="translate(0.002)" fill="#005fa9" stroke="#005fa9" stroke-linecap="round" stroke-linejoin="round" stroke-width="0.5"/><path d="M68.327,209.07a7.914,7.914,0,1,1,7.911-7.911A7.913,7.913,0,0,1,68.327,209.07Z" transform="translate(-60.41 -142.591)" fill="#005fa9" stroke="#005fa9" stroke-linecap="round" stroke-linejoin="round" stroke-width="0.5"/><circle cx="7.914" cy="7.914" r="7.914" transform="translate(0.002 101.303)" fill="#005fa9" stroke="#005fa9" stroke-linecap="round" stroke-linejoin="round" stroke-width="0.5"/><circle cx="7.914" cy="7.914" r="7.914" transform="translate(0.002 151.954)" fill="#005fa9" stroke="#005fa9" stroke-linecap="round" stroke-linejoin="round" stroke-width="0.5"/><circle cx="7.914" cy="7.914" r="7.914" transform="translate(0.002 202.606)" fill="#005fa9" stroke="#005fa9" stroke-linecap="round" stroke-linejoin="round" stroke-width="0.5"/></g><g transform="translate(226.308 184.298)"><circle cx="7.914" cy="7.914" r="7.914" fill="#005fa9" stroke="#005fa9" stroke-linecap="round" stroke-linejoin="round" stroke-width="0.5"/><path d="M76.763,209.07a7.914,7.914,0,1,1,7.917-7.911A7.912,7.912,0,0,1,76.763,209.07Z" transform="translate(-68.851 -142.591)" fill="#005fa9" stroke="#005fa9" stroke-linecap="round" stroke-linejoin="round" stroke-width="0.5"/><circle cx="7.914" cy="7.914" r="7.914" transform="translate(0 101.303)" fill="#005fa9" stroke="#005fa9" stroke-linecap="round" stroke-linejoin="round" stroke-width="0.5"/><circle cx="7.914" cy="7.914" r="7.914" transform="translate(0 151.954)" fill="#005fa9" stroke="#005fa9" stroke-linecap="round" stroke-linejoin="round" stroke-width="0.5"/></g><g transform="translate(274.111 184.298)"><path d="M85.21,200.126a7.914,7.914,0,1,1,7.917-7.917A7.918,7.918,0,0,1,85.21,200.126Z" transform="translate(-77.293 -184.298)" fill="#005fa9" stroke="#005fa9" stroke-linecap="round" stroke-linejoin="round" stroke-width="0.5"/><path d="M85.21,209.07a7.914,7.914,0,1,1,7.917-7.911A7.913,7.913,0,0,1,85.21,209.07Z" transform="translate(-77.293 -142.591)" fill="#005fa9" stroke="#005fa9" stroke-linecap="round" stroke-linejoin="round" stroke-width="0.5"/><path d="M85.21,218.014a7.914,7.914,0,1,1,7.917-7.911A7.913,7.913,0,0,1,85.21,218.014Z" transform="translate(-77.293 -100.885)" fill="#005fa9" stroke="#005fa9" stroke-linecap="round" stroke-linejoin="round" stroke-width="0.5"/></g><g transform="translate(321.918 184.298)"><path d="M93.652,200.126a7.914,7.914,0,1,1,7.911-7.917A7.918,7.918,0,0,1,93.652,200.126Z" transform="translate(-85.735 -184.298)" fill="#005fa9" stroke="#005fa9" stroke-linecap="round" stroke-linejoin="round" stroke-width="0.5"/><path d="M93.652,209.07a7.914,7.914,0,1,1,7.911-7.911A7.913,7.913,0,0,1,93.652,209.07Z" transform="translate(-85.735 -142.591)" fill="#005fa9" stroke="#005fa9" stroke-linecap="round" stroke-linejoin="round" stroke-width="0.5"/></g><g transform="translate(369.726 184.298)"><path d="M102.088,200.126a7.914,7.914,0,1,1,7.917-7.917A7.913,7.913,0,0,1,102.088,200.126Z" transform="translate(-94.177 -184.298)" fill="#005fa9" stroke="#005fa9" stroke-linecap="round" stroke-linejoin="round" stroke-width="0.5"/></g></g></g></svg>