<svg xmlns="http://www.w3.org/2000/svg" width="350.969" height="370.89" viewBox="0 0 350.969 370.89"><g transform="translate(0.25 0.25)"><g transform="translate(0 0)"><g transform="translate(334.638)"><ellipse cx="7.914" cy="7.914" rx="7.914" ry="7.914" transform="translate(0.003 354.561)" fill="#005fa9" stroke="#005fa9" stroke-linecap="round" stroke-linejoin="round" stroke-width="0.5"/><path d="M43,193.242a7.914,7.914,0,1,1-7.917,7.911A7.908,7.908,0,0,1,43,193.242Z" transform="translate(-35.086 110.668)" fill="#005fa9" stroke="#005fa9" stroke-linecap="round" stroke-linejoin="round" stroke-width="0.5"/><ellipse cx="7.914" cy="7.914" rx="7.914" ry="7.914" transform="translate(0.003 253.258)" fill="#005fa9" stroke="#005fa9" stroke-linecap="round" stroke-linejoin="round" stroke-width="0.5"/><ellipse cx="7.914" cy="7.914" rx="7.914" ry="7.914" transform="translate(0.003 202.607)" fill="#005fa9" stroke="#005fa9" stroke-linecap="round" stroke-linejoin="round" stroke-width="0.5"/><ellipse cx="7.914" cy="7.914" rx="7.914" ry="7.914" transform="translate(0.003 151.955)" fill="#005fa9" stroke="#005fa9" stroke-linecap="round" stroke-linejoin="round" stroke-width="0.5"/><ellipse cx="7.914" cy="7.914" rx="7.914" ry="7.914" transform="translate(0.003 101.303)" fill="#005fa9" stroke="#005fa9" stroke-linecap="round" stroke-linejoin="round" stroke-width="0.5"/><path d="M43,237.963a7.914,7.914,0,1,1-7.917,7.917A7.913,7.913,0,0,1,43,237.963Z" transform="translate(-35.086 -187.312)" fill="#005fa9" stroke="#005fa9" stroke-linecap="round" stroke-linejoin="round" stroke-width="0.5"/><ellipse cx="7.914" cy="7.914" rx="7.914" ry="7.914" transform="translate(0.003 0)" fill="#005fa9" stroke="#005fa9" stroke-linecap="round" stroke-linejoin="round" stroke-width="0.5"/></g><g transform="translate(286.835 50.651)"><ellipse cx="7.914" cy="7.914" rx="7.914" ry="7.914" transform="translate(0 303.911)" fill="#005fa9" stroke="#005fa9" stroke-linecap="round" stroke-linejoin="round" stroke-width="0.5"/><path d="M51.438,193.242a7.914,7.914,0,1,1-7.911,7.911A7.913,7.913,0,0,1,51.438,193.242Z" transform="translate(-43.526 60.018)" fill="#005fa9" stroke="#005fa9" stroke-linecap="round" stroke-linejoin="round" stroke-width="0.5"/><ellipse cx="7.914" cy="7.914" rx="7.914" ry="7.914" transform="translate(0 202.607)" fill="#005fa9" stroke="#005fa9" stroke-linecap="round" stroke-linejoin="round" stroke-width="0.5"/><ellipse cx="7.914" cy="7.914" rx="7.914" ry="7.914" transform="translate(0 151.956)" fill="#005fa9" stroke="#005fa9" stroke-linecap="round" stroke-linejoin="round" stroke-width="0.5"/><ellipse cx="7.914" cy="7.914" rx="7.914" ry="7.914" transform="translate(0 101.304)" fill="#005fa9" stroke="#005fa9" stroke-linecap="round" stroke-linejoin="round" stroke-width="0.5"/><ellipse cx="7.914" cy="7.914" rx="7.914" ry="7.914" transform="translate(0 50.653)" fill="#005fa9" stroke="#005fa9" stroke-linecap="round" stroke-linejoin="round" stroke-width="0.5"/><path d="M51.438,237.963a7.914,7.914,0,1,1-7.911,7.917A7.918,7.918,0,0,1,51.438,237.963Z" transform="translate(-43.526 -237.963)" fill="#005fa9" stroke="#005fa9" stroke-linecap="round" stroke-linejoin="round" stroke-width="0.5"/></g><g transform="translate(239.028 101.303)"><ellipse cx="7.914" cy="7.914" rx="7.914" ry="7.914" transform="translate(0.002 253.258)" fill="#005fa9" stroke="#005fa9" stroke-linecap="round" stroke-linejoin="round" stroke-width="0.5"/><path d="M59.886,193.242a7.914,7.914,0,1,1-7.917,7.911A7.908,7.908,0,0,1,59.886,193.242Z" transform="translate(-51.969 9.365)" fill="#005fa9" stroke="#005fa9" stroke-linecap="round" stroke-linejoin="round" stroke-width="0.5"/><ellipse cx="7.914" cy="7.914" rx="7.914" ry="7.914" transform="translate(0.002 151.955)" fill="#005fa9" stroke="#005fa9" stroke-linecap="round" stroke-linejoin="round" stroke-width="0.5"/><ellipse cx="7.914" cy="7.914" rx="7.914" ry="7.914" transform="translate(0.002 101.303)" fill="#005fa9" stroke="#005fa9" stroke-linecap="round" stroke-linejoin="round" stroke-width="0.5"/><ellipse cx="7.914" cy="7.914" rx="7.914" ry="7.914" transform="translate(0.002 50.651)" fill="#005fa9" stroke="#005fa9" stroke-linecap="round" stroke-linejoin="round" stroke-width="0.5"/><ellipse cx="7.914" cy="7.914" rx="7.914" ry="7.914" transform="translate(0.002 0)" fill="#005fa9" stroke="#005fa9" stroke-linecap="round" stroke-linejoin="round" stroke-width="0.5"/></g><g transform="translate(191.224 151.955)"><ellipse cx="7.914" cy="7.914" rx="7.914" ry="7.914" transform="translate(0 202.607)" fill="#005fa9" stroke="#005fa9" stroke-linecap="round" stroke-linejoin="round" stroke-width="0.5"/><path d="M68.321,193.242a7.914,7.914,0,1,1-7.911,7.911A7.913,7.913,0,0,1,68.321,193.242Z" transform="translate(-60.408 -41.286)" fill="#005fa9" stroke="#005fa9" stroke-linecap="round" stroke-linejoin="round" stroke-width="0.5"/><ellipse cx="7.914" cy="7.914" rx="7.914" ry="7.914" transform="translate(0 101.303)" fill="#005fa9" stroke="#005fa9" stroke-linecap="round" stroke-linejoin="round" stroke-width="0.5"/><ellipse cx="7.914" cy="7.914" rx="7.914" ry="7.914" transform="translate(0 50.652)" fill="#005fa9" stroke="#005fa9" stroke-linecap="round" stroke-linejoin="round" stroke-width="0.5"/><ellipse cx="7.914" cy="7.914" rx="7.914" ry="7.914" transform="translate(0 0)" fill="#005fa9" stroke="#005fa9" stroke-linecap="round" stroke-linejoin="round" stroke-width="0.5"/></g><g transform="translate(143.418 202.607)"><ellipse cx="7.914" cy="7.914" rx="7.914" ry="7.914" transform="translate(0.001 151.955)" fill="#005fa9" stroke="#005fa9" stroke-linecap="round" stroke-linejoin="round" stroke-width="0.5"/><path d="M76.769,193.242a7.914,7.914,0,1,1-7.917,7.911A7.912,7.912,0,0,1,76.769,193.242Z" transform="translate(-68.852 -91.938)" fill="#005fa9" stroke="#005fa9" stroke-linecap="round" stroke-linejoin="round" stroke-width="0.5"/><ellipse cx="7.914" cy="7.914" rx="7.914" ry="7.914" transform="translate(0.001 50.651)" fill="#005fa9" stroke="#005fa9" stroke-linecap="round" stroke-linejoin="round" stroke-width="0.5"/><ellipse cx="7.914" cy="7.914" rx="7.914" ry="7.914" transform="translate(0.001 0)" fill="#005fa9" stroke="#005fa9" stroke-linecap="round" stroke-linejoin="round" stroke-width="0.5"/></g><g transform="translate(95.61 253.26)"><path d="M85.21,184.3a7.914,7.914,0,1,1-7.917,7.917A7.918,7.918,0,0,1,85.21,184.3Z" transform="translate(-77.293 -82.996)" fill="#005fa9" stroke="#005fa9" stroke-linecap="round" stroke-linejoin="round" stroke-width="0.5"/><path d="M85.21,193.242a7.914,7.914,0,1,1-7.917,7.911A7.913,7.913,0,0,1,85.21,193.242Z" transform="translate(-77.293 -142.591)" fill="#005fa9" stroke="#005fa9" stroke-linecap="round" stroke-linejoin="round" stroke-width="0.5"/><path d="M85.21,202.186a7.914,7.914,0,1,1-7.917,7.911A7.913,7.913,0,0,1,85.21,202.186Z" transform="translate(-77.293 -202.186)" fill="#005fa9" stroke="#005fa9" stroke-linecap="round" stroke-linejoin="round" stroke-width="0.5"/></g><g transform="translate(47.808 303.91)"><path d="M93.646,184.3a7.914,7.914,0,1,1-7.911,7.917A7.918,7.918,0,0,1,93.646,184.3Z" transform="translate(-85.735 -133.647)" fill="#005fa9" stroke="#005fa9" stroke-linecap="round" stroke-linejoin="round" stroke-width="0.5"/><path d="M93.646,193.242a7.914,7.914,0,1,1-7.911,7.911A7.913,7.913,0,0,1,93.646,193.242Z" transform="translate(-85.735 -193.242)" fill="#005fa9" stroke="#005fa9" stroke-linecap="round" stroke-linejoin="round" stroke-width="0.5"/></g><g transform="translate(0 354.561)"><path d="M102.094,184.3a7.914,7.914,0,1,1-7.917,7.917A7.913,7.913,0,0,1,102.094,184.3Z" transform="translate(-94.177 -184.298)" fill="#005fa9" stroke="#005fa9" stroke-linecap="round" stroke-linejoin="round" stroke-width="0.5"/></g></g></g></svg>